<?xml version="1.0" encoding="UTF-8"?>
<svg version="1.1" viewBox="0 0 900 900" width="1280" height="1280" xmlns="http://www.w3.org/2000/svg">
<path transform="translate(0)" d="m0 0h900v900h-900z" fill="#FEFEFE"/>
<path transform="translate(269,169)" d="m0 0h289l8 6 6 6 1 3 1 41v231l-4 9-4 5-8 4-5 1h-117v-7l4-13 6-10 6-7 11-7 10-4 5-1 29-1h17v-206h-222l-1 31-3 11-5 9-9 10-11 7-9 3-12 2v-105l4-8 7-7z" fill="#4E5868"/>
<path transform="translate(206,522)" d="m0 0h23l1 41 11-8 6-2h16l13 4 8 6 7 11 4 14v16l-4 12-6 9-8 7-9 4-5 1h-14l-10-4-10-7-2 6-5 4-2 1-14-1z" fill="#4E5969"/>
<path transform="translate(616,553)" d="m0 0h11l2 6v3l4-2 9-6 4-1h18l9 3 9 7 6 8 4 9 2 12-1 14-3 10-7 10-11 8-11 3h-10l-9-2-9-5-5-4v33l-3 5-4 2h-15l-1-1v-111z" fill="#4E5969"/>
<path transform="translate(538,553)" d="m0 0h26l11 4 7 7 4 8 1 3 1 62h-12l-7-1-5-7-5 2-6 4-11 2-15-1-8-4-7-8-2-6v-14l4-8 7-6 10-3 33-1-3-8-5-5-9-1-15 2-8 1-6-5-3-6 2-4 12-5z" fill="#4E5969"/>
<path transform="translate(734,553)" d="m0 0h22l11 4 10 9 6 10 2 8v18l-58 1 3 6 1 3 4 2 9 4 10-1 13-4 7 2 6 6-2 4-7 6-10 4-12 2-17-1-10-4-10-9-6-9-4-11v-16l4-12 6-9 9-8 9-4z" fill="#4E5969"/>
<path transform="translate(116,553)" d="m0 0h15l1 48 2 7 4 4 8 2 9-2 5-2 2-4 1-3 1-49 12-1h12l1 5v77l-1 2-17-1-7-9-4 2-7 5-5 2-6 1h-11l-10-4-8-7-4-8-1-4-1-43 1-17z" fill="#4E596A"/>
<path transform="translate(272,321)" d="m0 0h29l9 1 3 5 1 28v15l-1 9-2 3-4 1h-38l-16-2-1-2v-53l3-4z" fill="#F7A435"/>
<path transform="translate(258,414)" d="m0 0h49l6 2v55l-2 3-4 1h-48l-5-2-2-4v-48l3-6z" fill="#3790A7"/>
<path transform="translate(374,552)" d="m0 0h11l12 2 12 5 3 3-1 5-4 5-5 2-10-1-10-3-7 1-5 5 5 5 23 8 9 5 5 7 2 7v7l-4 9-4 5-8 5-12 3h-11l-16-3-11-5-4-3 1-5 5-10 6 1 12 5 5 1h13l4-4-3-5-7-3-17-6-9-6-4-5-2-5v-13l4-8 8-7 8-3z" fill="#4E596A"/>
<path transform="translate(355,414)" d="m0 0h42l7 1 1 1v27l-1 31-5 1h-47l-7-2-1-4v-53z" fill="#60B995"/>
<path transform="translate(455,553)" d="m0 0h20l11 4 9 6 5 5v3l-11 7-5 1-10-4-4-1h-10l-8 5-4 6-2 8 1 9 4 8 7 5 4 1h8l10-4 5-4 4 2 10 7 1 4-8 8-12 6-11 2-16-1-16-8-8-9-5-10-2-8v-13l4-13 5-9 8-7 8-4z" fill="#4E5969"/>
<path transform="translate(95,552)" d="m0 0h4v23l-14 2-8 5-4 7-1 47-24 1-1-1v-82l1-1h14l6 3 3 4 1 3h3l4-5 9-4z" fill="#4E5A6A"/>
<path transform="translate(309,553)" d="m0 0h22v77l-4 5-3 1h-16v-82z" fill="#4E5868"/>
<path transform="translate(823,540)" d="m0 0h11l7 4 7 8 2 12-3 9-5 6-9 4h-12l-8-5-4-5-2-4v-13l4-8 7-6z" fill="#FEFEFE"/>
<path transform="translate(647,571)" d="m0 0 10 2 6 4 4 5 2 6v14l-4 8-6 5-6 2h-9l-8-4-5-6-2-6v-12l3-8 7-7z" fill="#FEFEFE"/>
<path transform="translate(250,571)" d="m0 0 8 2 6 4 4 5 2 4v17l-6 9-4 3-7 2h-8l-6-3-7-8-3-10 1-8 4-8 8-7z" fill="#FEFEFE"/>
<path transform="translate(412,698)" d="m0 0h4l2 4 8-4h6l9 6 6-5 2-1 10 1 5 5 1 5v15l-1 7h-5l-1-19-3-7-6-1-6 5-2 4v17l-1 1h-5l-1-2v-15l-2-8-2-2-6 1-5 3-2 22-1 1h-5v-32z" fill="#4C5D6D"/>
<path transform="translate(769,698)" d="m0 0 9 1 5 4 2 6v7l-3 1h-20l2 6 4 2 10-1 6-1-1 4-8 4h-9l-6-4-4-5-2-8 2-8 7-6z" fill="#4D5B6C"/>
<path transform="translate(654,698)" d="m0 0 9 1 6 5 3 9-1 4h-21l-3-1 3 7 3 2h9l5-2h3l-2 5-5 3h-11l-7-4-4-8v-10l4-7z" fill="#4D5B6C"/>
<path transform="translate(488,698)" d="m0 0 9 1 6 5 1 12-1 14-4 1-5-1-4 1h-8l-5-4-1-2v-8l4-4 7-2h11l-1-5-4-2h-7l-7 2-1-4 6-3z" fill="#4D5C6C"/>
<path transform="translate(564,698)" d="m0 0h8l5 3 4 5 2 9-3 2h-20l-3-2 3 9 3 1h9l5-2h3l-1 4-4 3-3 1h-10l-6-4-3-4-2-9 2-8 8-7z" fill="#4D5B6B"/>
<path transform="translate(315,517)" d="m0 0h9l5 3 3 5v11l-5 5-5 2-9-1-5-6-2-5 1-6 4-6z" fill="#4D5A6A"/>
<path transform="translate(519,685)" d="m0 0 4 1v27l4-1 2-4 9-9 6-1-2 5-7 7 1 4 8 13 2 4-3 1-5-3-6-9-3-4-5 5-1 9-4 2-2-1v-45z" fill="#4D5B6B"/>
<path transform="translate(548,600)" d="m0 0h14l2 1v7l-4 7-7 4-4 1h-10l-6-5-1-2 1-9 4-3z" fill="#FEFEFE"/>
<path transform="translate(740,570)" d="m0 0h10l8 4 4 6 1 7-13 1h-22l-2-1 1-5 4-6 5-4z" fill="#FEFEFE"/>
<path transform="translate(823,540)" d="m0 0h11l7 4 7 8 2 12-3 9-5 6-9 4h-12l-8-5-4-5-2-4v-13l4-8 7-6zm-1 4-8 7-4 8 1 10 7 8 4 3h11l8-5 4-6 1-9-4-10-7-6z" fill="#4C5E6F"/>
<path transform="translate(682,698)" d="m0 0 5 1 2 5 6-5 6-1 7 2 4 5 1 26h-6l-1-21-3-5-5-1-7 4-2 3-1 20h-6z" fill="#4E5B6B"/>
<path transform="translate(733,698)" d="m0 0 10 1 3 2v3l-4 1-3-1h-8l-1 5 10 4 6 3v10l-4 4-3 1h-8l-8-4-1-4 9 2h8l2-6-11-3-6-5v-7l5-5z" fill="#4D5C6D"/>
<path transform="translate(618,698)" d="m0 0 10 1 4 2-1 4-5-1h-9l-1 5 9 4 7 3v10l-5 4-2 1h-8l-7-3-2-2v-3l6 1 2 1h10l1-6-12-3-5-6 1-7 4-4z" fill="#4D5C6C"/>
<path transform="translate(828,549)" d="m0 0 6 1 3 3v4l-11-1-2 3v8h15l-2 4-5 3h-7l-6-4-2-2-1-10 6-7z" fill="#4C5C6D"/>
<path transform="translate(565,703)" d="m0 0h6l5 4 1 5-1 1-18 1-1-4 5-6z" fill="#FEFEFE"/>
<path transform="translate(654,703)" d="m0 0 8 1 5 6-1 3-19 1 1-7z" fill="#FEFEFE"/>
<path transform="translate(770,703)" d="m0 0 6 1 3 3 1 5-2 1h-17l-1-3 4-5z" fill="#FEFEFE"/>
<path transform="translate(485,716)" d="m0 0h13v6l-4 3-3 1h-8l-3-5 2-4z" fill="#FEFEFE"/>
</svg>
