<svg width="238" height="80" viewBox="0 0 238 80" fill="none" xmlns="http://www.w3.org/2000/svg">
<rect width="238" height="80" fill="white"/>
<path d="M62.3591 9H57.5422H13.6337H8.81684C6.16266 9 4 11.1514 4 13.7918V18.5835V32.9425C9.30835 32.9425 13.6337 28.656 13.6337 23.359V18.5672H57.5422V59.2646H49.7272C44.4188 59.2646 40.0935 63.5511 40.0935 68.8481H57.5422H62.3591C65.0133 68.8481 67.1759 66.6967 67.1759 64.0564V59.2646V18.5835V13.7918C67.1759 11.1514 65.0133 9 62.3591 9Z" fill="#4C5664"/>
<path d="M14.2372 56.8848H5.81589C4.81648 56.8848 4.01367 57.6834 4.01367 58.6776V67.055C4.01367 68.0492 4.81648 68.8479 5.81589 68.8479H14.2372C15.2366 68.8479 16.0394 68.0492 16.0394 67.055V58.6776C16.0394 57.6834 15.2202 56.8848 14.2372 56.8848Z" fill="#3891AA"/>
<path d="M14.2372 38.9248H5.81589C4.81648 38.9248 4.01367 39.7234 4.01367 40.7176V49.0951C4.01367 50.0893 4.81648 50.8879 5.81589 50.8879H14.2372C15.2366 50.8879 16.0394 50.0893 16.0394 49.0951V40.7176C16.0394 39.7234 15.2202 38.9248 14.2372 38.9248Z" fill="#F69F25"/>
<path d="M32.2774 56.8848H23.8562C22.8568 56.8848 22.054 57.6834 22.054 58.6776V67.055C22.054 68.0492 22.8568 68.8479 23.8562 68.8479H32.2774C33.2769 68.8479 34.0797 68.0492 34.0797 67.055V58.6776C34.0797 57.6834 33.2769 56.8848 32.2774 56.8848Z" fill="#5FBF92"/>
<path d="M159.481 55.8735V59.0517C159.481 59.4755 159.137 59.8177 158.711 59.8177H158.105V56.2484C158.105 55.2867 157.531 54.7 156.597 54.7C155.499 54.7326 154.844 55.5638 154.844 56.6721V59.0517C154.844 59.4755 154.5 59.8177 154.074 59.8177H153.468V56.2484C153.468 55.2867 152.911 54.7 151.977 54.7C150.879 54.7326 150.208 55.5638 150.208 56.6721V59.0517C150.208 59.4755 149.863 59.8177 149.438 59.8177H148.831V53.4776H150.191V54.7C150.634 53.8036 151.453 53.4287 152.501 53.4287C153.632 53.4287 154.418 53.9829 154.713 54.9608C155.123 53.9014 155.975 53.4287 157.138 53.4287C158.596 53.4287 159.481 54.3577 159.481 55.8735Z" fill="#4C5664"/>
<path d="M165.723 59.0361C165.264 59.5902 164.543 59.8673 163.609 59.8673C162.233 59.8673 161.365 59.0198 161.365 57.8952C161.365 56.738 162.233 56.0045 163.773 55.9882H165.706V55.7927C165.706 54.994 165.198 54.5214 164.183 54.5214C163.74 54.5214 163.298 54.6355 162.839 54.8474C162.528 54.994 162.151 54.8962 161.971 54.6029L161.741 54.2117C162.626 53.6902 163.281 53.4131 164.477 53.4131C166.116 53.4131 167.033 54.2443 167.05 55.646L167.066 59.8021H166.198C165.919 59.8021 165.706 59.5902 165.706 59.3131V59.0361H165.723ZM165.706 57.5855V56.9988H163.986C163.085 56.9988 162.675 57.2432 162.675 57.8463C162.675 58.4167 163.15 58.7916 163.904 58.7916C164.887 58.7916 165.641 58.27 165.706 57.5855Z" fill="#4C5664"/>
<path d="M170.954 58.0416V59.2314C170.954 59.5574 170.691 59.8182 170.364 59.8182H169.577V50.9844H170.954V56.314L173.772 53.478H175.344L172.985 55.9391L175.525 59.8182H173.903L172.035 56.917L170.954 58.0416Z" fill="#4C5664"/>
<path d="M182.514 57.1617H177.714C177.927 58.1397 178.681 58.7427 179.696 58.7427C180.155 58.7427 180.597 58.6286 180.974 58.4004C181.302 58.2048 181.728 58.2374 181.99 58.5308L182.219 58.7753C181.597 59.4598 180.679 59.851 179.582 59.851C177.616 59.851 176.321 58.5471 176.321 56.6402C176.321 54.717 177.648 53.4294 179.549 53.4131C181.777 53.4294 182.695 54.88 182.514 57.1617ZM181.318 56.1675C181.269 55.1407 180.581 54.5214 179.549 54.5214C178.549 54.5214 177.829 55.157 177.681 56.1675H181.318Z" fill="#4C5664"/>
<path d="M192.345 54.0494L192.198 54.3428C192.001 54.7176 191.559 54.8806 191.166 54.7339C190.772 54.5873 190.363 54.5058 190.019 54.5058C189.478 54.5058 189.085 54.685 189.085 55.1414C189.085 56.3149 192.476 55.6793 192.46 57.9773C192.46 59.2812 191.297 59.8517 190.019 59.8517C189.085 59.8517 188.085 59.542 187.463 58.9716L187.954 57.9936C188.511 58.4826 189.396 58.776 190.084 58.776C190.674 58.776 191.133 58.5804 191.133 58.0914C191.133 56.7875 187.774 57.521 187.791 55.2392C187.791 53.9516 188.921 53.3975 190.133 53.3975C190.92 53.4138 191.772 53.6582 192.345 54.0494Z" fill="#4C5664"/>
<path d="M200.053 57.1617H195.236C195.449 58.1397 196.203 58.7427 197.218 58.7427C197.693 58.7427 198.136 58.6286 198.513 58.4004C198.824 58.2048 199.234 58.2537 199.496 58.5145L199.741 58.7753C199.119 59.4598 198.201 59.851 197.104 59.851C195.138 59.851 193.843 58.5471 193.843 56.6402C193.843 54.717 195.17 53.4294 197.071 53.4131C199.299 53.4294 200.217 54.88 200.053 57.1617ZM198.857 56.1675C198.808 55.1407 198.119 54.5214 197.087 54.5214C196.088 54.5214 195.367 55.157 195.22 56.1675H198.857Z" fill="#4C5664"/>
<path d="M208.16 55.873V59.8173H206.784V56.2479C206.784 55.3026 206.21 54.7158 205.244 54.7158C204.195 54.7321 203.523 55.4493 203.441 56.4435V59.1979C203.441 59.5402 203.163 59.8173 202.819 59.8173H202.065V53.4771H203.441V54.6995C203.9 53.8194 204.703 53.4445 205.784 53.4445C207.275 53.4282 208.16 54.3573 208.16 55.873Z" fill="#4C5664"/>
<path d="M214.729 54.0494L214.548 54.4243C214.385 54.7502 213.991 54.8969 213.647 54.7665C213.221 54.6036 212.779 54.5058 212.402 54.5058C211.861 54.5058 211.468 54.685 211.468 55.1414C211.468 56.3149 214.86 55.6793 214.843 57.9773C214.843 59.2812 213.68 59.8517 212.402 59.8517C211.468 59.8517 210.469 59.542 209.846 58.9716L210.338 57.9936C210.895 58.4826 211.779 58.776 212.468 58.776C213.057 58.776 213.516 58.5804 213.516 58.0914C213.516 56.7875 210.157 57.521 210.174 55.2392C210.174 53.9516 211.304 53.3975 212.517 53.3975C213.303 53.4138 214.155 53.6582 214.729 54.0494Z" fill="#4C5664"/>
<path d="M222.413 57.1617H217.596C217.809 58.1397 218.563 58.7427 219.579 58.7427C220.119 58.7427 220.611 58.5797 221.02 58.3026C221.233 58.156 221.545 58.1885 221.725 58.3841L222.102 58.7753C221.479 59.4598 220.562 59.851 219.464 59.851C217.498 59.851 216.204 58.5471 216.204 56.6402C216.204 54.717 217.531 53.4294 219.431 53.4131C221.659 53.4294 222.577 54.88 222.413 57.1617ZM221.217 56.1675C221.168 55.1407 220.48 54.5214 219.448 54.5214C218.448 54.5214 217.727 55.157 217.58 56.1675H221.217Z" fill="#4C5664"/>
<path d="M82.2164 28.0531C83.3305 26.081 85.1655 24.989 87.5739 24.9727V29.3081C84.2644 29.0147 82.2164 30.7749 82.2164 33.4968V41.2549H77.5798V25.1193H80.021C81.2334 25.1193 82.2164 26.0973 82.2164 27.3033C82.2164 27.3359 82.2164 28.0531 82.2164 28.0531Z" fill="#4C5664"/>
<path d="M105.184 41.2716H102.776C101.563 41.2716 100.58 40.2937 100.58 39.0876V38.4356C99.4661 40.4729 97.5983 41.4672 95.1571 41.4672C91.5691 41.4672 89.3081 39.1039 89.3081 35.29V25.1523H93.9447V33.9698C93.9447 36.0072 95.1243 37.2458 96.9921 37.2458C99.2203 37.2132 100.58 35.4693 100.58 33.1386V25.1686H105.184V41.2716Z" fill="#4C5664"/>
<path d="M126.041 33.3019C126.041 38.1915 123.059 41.4512 118.505 41.4512C116.244 41.4512 114.474 40.5547 113.295 38.9249V39.0716C113.295 40.2777 112.312 41.2556 111.099 41.2556H108.658V19.0244H113.295V27.5159C114.441 25.9024 116.211 24.9897 118.423 24.9897C122.977 24.9897 126.041 28.3146 126.041 33.3019ZM121.339 33.1552C121.339 30.5801 119.717 28.722 117.325 28.722C114.949 28.722 113.295 30.5475 113.295 33.1552C113.295 35.8282 114.949 37.621 117.325 37.621C119.717 37.621 121.339 35.7793 121.339 33.1552Z" fill="#4C5664"/>
<path d="M133.435 20.5556C133.435 22.0551 132.403 23.1308 130.928 23.1308C129.454 23.1308 128.422 22.0551 128.422 20.5556C128.422 19.0562 129.454 17.9805 130.928 17.9805C132.403 17.9805 133.435 19.0562 133.435 20.5556Z" fill="#4C5664"/>
<path d="M128.613 41.2713V25.1357H133.249V39.0873C133.249 40.2934 132.266 41.2713 131.054 41.2713H128.613Z" fill="#4C5664"/>
<path d="M149.171 26.7333L148.548 27.9719C148.04 28.9662 146.844 29.4388 145.796 29.0314C144.633 28.575 143.535 28.3142 142.634 28.3142C141.552 28.3142 140.766 28.6728 140.766 29.5203C140.766 31.9488 149.318 30.7264 149.302 36.4146C149.302 39.7069 146.386 41.4508 142.699 41.4508C140.078 41.4508 137.522 40.6685 135.671 39.2016L137.178 36.0886C138.865 37.3762 141.028 38.0933 142.814 38.0933C143.994 38.0933 144.862 37.7022 144.862 36.8383C144.862 34.2632 136.457 35.6322 136.457 29.9767C136.457 26.6518 139.324 24.9404 142.847 24.9404C145.075 24.9404 147.369 25.5924 149.171 26.7333Z" fill="#4C5664"/>
<path d="M166.379 28.3786L164.626 29.6336C163.889 30.1552 162.922 30.1389 162.169 29.6499C161.448 29.1773 160.563 28.9002 159.531 28.9328C157.27 28.9328 155.681 30.6767 155.681 33.2519C155.681 35.8596 157.27 37.6362 159.531 37.6362C161.186 37.6362 162.48 37.0005 163.299 35.7456L166.494 37.897C165.151 40.1136 162.677 41.4337 159.433 41.4663C154.894 41.5152 151.126 38.0273 151.044 33.529C150.929 28.4438 154.304 25.0211 159.351 25.0211C162.464 24.9885 164.921 26.2272 166.379 28.3786Z" fill="#4C5664"/>
<path d="M178.897 39.3802C177.816 40.733 176.063 41.4827 173.802 41.4827C170.345 41.4827 168.231 39.3802 168.231 36.4465C168.231 33.415 170.427 31.6221 174.408 31.5895H178.864V31.2962C178.864 29.5848 177.717 28.5906 175.489 28.5906C174.572 28.5906 173.556 28.7862 172.507 29.1611C171.426 29.5522 170.23 29.047 169.755 28.0039L169.214 26.8141C171.623 25.608 173.703 24.9561 176.538 24.9561C180.88 24.9561 183.386 27.1075 183.403 30.742L183.435 41.2709H180.781C179.749 41.2709 178.897 40.4233 178.897 39.3802ZM178.864 35.7457V34.3114H175.211C173.425 34.3114 172.557 34.8493 172.557 36.1368C172.557 37.3592 173.523 38.1741 175.096 38.1741C177.062 38.1904 178.602 37.131 178.864 35.7457Z" fill="#4C5664"/>
<path d="M204.309 33.3015C204.309 38.191 201.328 41.4508 196.773 41.4508C194.512 41.4508 192.743 40.5543 191.563 38.9245V44.8897C191.563 46.0958 190.58 47.0737 189.367 47.0737H186.926V25.1359H191.563V27.5155C192.71 25.902 194.479 24.9893 196.691 24.9893C201.229 24.9893 204.309 28.3142 204.309 33.3015ZM199.607 33.1548C199.607 30.5796 197.985 28.7216 195.593 28.7216C193.218 28.7216 191.563 30.547 191.563 33.1548C191.563 35.8278 193.218 37.6206 195.593 37.6206C197.969 37.6206 199.607 35.7789 199.607 33.1548Z" fill="#4C5664"/>
<path d="M222.328 34.622H210.696C211.236 36.6593 212.809 37.8654 214.89 37.8654C215.873 37.8654 216.823 37.621 217.675 37.1483C218.543 36.6756 219.608 36.7897 220.296 37.4743L221.427 38.6152C219.805 40.408 217.413 41.4674 214.497 41.4674C209.319 41.4674 206.026 38.1751 206.026 33.2856C206.026 28.3145 209.434 25.0059 214.382 25.0059C220.083 24.9896 222.721 28.7383 222.328 34.622ZM218.003 31.8839C217.937 29.7488 216.561 28.3797 214.415 28.3797C212.367 28.3797 210.974 29.7651 210.614 31.8839H218.003Z" fill="#4C5664"/>
<path d="M228.982 25.6876C228.982 25.2229 229.096 24.7992 229.322 24.4167C229.549 24.0341 229.854 23.7295 230.236 23.5028C230.619 23.2761 231.042 23.1628 231.507 23.1628C231.909 23.1628 232.281 23.2492 232.621 23.4221C232.964 23.5949 233.247 23.8315 233.471 24.1319C233.695 24.4294 233.833 24.7666 233.887 25.1435H232.859C232.802 24.8516 232.645 24.6136 232.387 24.4294C232.129 24.2424 231.836 24.1489 231.507 24.1489C231.224 24.1489 230.966 24.2183 230.733 24.3572C230.501 24.496 230.316 24.6816 230.177 24.914C230.038 25.1463 229.968 25.4042 229.968 25.6876C229.968 25.9709 230.038 26.2288 230.177 26.4612C230.316 26.6935 230.501 26.8791 230.733 27.018C230.966 27.1568 231.224 27.2262 231.507 27.2262C231.836 27.2262 232.113 27.1341 232.34 26.95C232.57 26.7629 232.714 26.5235 232.774 26.2316H233.802C233.748 26.6085 233.617 26.9471 233.407 27.2475C233.197 27.545 232.928 27.7802 232.599 27.9531C232.274 28.1259 231.909 28.2123 231.507 28.2123C231.042 28.2123 230.619 28.099 230.236 27.8723C229.854 27.6456 229.549 27.341 229.322 26.9585C229.096 26.5759 228.982 26.1523 228.982 25.6876ZM231.465 30.1761C230.847 30.1761 230.266 30.0599 229.722 29.8275C229.181 29.5952 228.703 29.2735 228.289 28.8627C227.879 28.449 227.556 27.9715 227.32 27.4303C227.088 26.889 226.973 26.3081 226.976 25.6876C226.979 25.067 227.097 24.4861 227.329 23.9449C227.564 23.4037 227.887 22.9276 228.298 22.5167C228.709 22.103 229.185 21.78 229.726 21.5476C230.267 21.3153 230.847 21.1991 231.465 21.1991C232.085 21.1991 232.666 21.3153 233.207 21.5476C233.751 21.78 234.227 22.103 234.635 22.5167C235.046 22.9276 235.368 23.4037 235.6 23.9449C235.833 24.4861 235.95 25.067 235.953 25.6876C235.956 26.3081 235.841 26.889 235.609 27.4303C235.376 27.9715 235.055 28.449 234.644 28.8627C234.233 29.2735 233.756 29.5952 233.212 29.8275C232.667 30.0599 232.085 30.1761 231.465 30.1761ZM231.465 29.1899C231.949 29.1899 232.404 29.0993 232.829 28.9179C233.254 28.7366 233.627 28.4858 233.947 28.1656C234.267 27.8454 234.518 27.4742 234.699 27.052C234.881 26.6269 234.97 26.1735 234.967 25.6918C234.964 25.2073 234.872 24.7525 234.691 24.3274C234.509 23.9024 234.259 23.5298 233.938 23.2096C233.618 22.8894 233.247 22.6386 232.825 22.4572C232.403 22.2759 231.949 22.1852 231.465 22.1852C230.983 22.1852 230.531 22.2759 230.109 22.4572C229.686 22.6386 229.315 22.8908 228.995 23.2138C228.675 23.534 228.423 23.9066 228.238 24.3317C228.057 24.7539 227.965 25.2073 227.962 25.6918C227.959 26.1707 228.049 26.6227 228.23 27.0477C228.411 27.4699 228.662 27.8411 228.982 28.1613C229.305 28.4815 229.678 28.7337 230.1 28.9179C230.525 29.0993 230.98 29.1899 231.465 29.1899Z" fill="#4C5664"/>
</svg>
